<svg width="51" height="50" viewBox="0 0 51 50" fill="none" xmlns="http://www.w3.org/2000/svg">
<path d="M50.6387 25C50.6387 38.8071 39.4458 50 25.6387 50C11.8316 50 0.638672 38.8071 0.638672 25C0.638672 11.1929 11.8316 0 25.6387 0C39.4458 0 50.6387 11.1929 50.6387 25Z" fill="#3A0CA3"/>
<path d="M37.3537 22.165L26.1037 13.165C25.9707 13.0585 25.8053 13.0005 25.6349 13.0005C25.4645 13.0005 25.2992 13.0585 25.1662 13.165L13.9162 22.165C13.7948 22.2624 13.7067 22.3951 13.6641 22.5447C13.6216 22.6944 13.6266 22.8536 13.6785 23.0002C13.7304 23.1469 13.8266 23.2738 13.9539 23.3634C14.0811 23.4529 14.2331 23.5007 14.3887 23.5H15.8887V36.25C15.8887 36.4489 15.9677 36.6397 16.1083 36.7803C16.249 36.921 16.4398 37 16.6387 37H31.6387V35.5H28.6387V28.75C28.6387 28.5511 28.5597 28.3603 28.419 28.2197C28.2784 28.079 28.0876 28 27.8887 28H23.3887C23.1898 28 22.999 28.079 22.8583 28.2197C22.7177 28.3603 22.6387 28.5511 22.6387 28.75V35.5H17.3887V23.5H30.1387V22H16.5262L25.6387 14.71L34.7512 22H34.6387C34.4398 22 34.249 22.079 34.1083 22.2197C33.9677 22.3603 33.8887 22.5511 33.8887 22.75V27.25H35.3887V23.5H36.8887C37.0436 23.4991 37.1945 23.4502 37.3206 23.3601C37.4466 23.27 37.5417 23.143 37.5926 22.9967C37.6436 22.8504 37.648 22.6919 37.6052 22.5429C37.5624 22.394 37.4745 22.262 37.3537 22.165ZM24.1387 29.5H27.1387V35.5H24.1387V29.5Z" fill="white"/>
<path d="M32.3887 32.9425L31.4212 31.975L30.3637 33.0325L31.8637 34.5325C32.0042 34.6722 32.1943 34.7506 32.3924 34.7506C32.5906 34.7506 32.7807 34.6722 32.9212 34.5325L37.4212 30.0325L36.3637 28.975L32.3887 32.9425Z" fill="white"/>
</svg>
