<svg width="23" height="22" viewBox="0 0 23 22" fill="none" xmlns="http://www.w3.org/2000/svg">
<path d="M5.02353 22.0008H0.371075V7.31212H5.02353V22.0008ZM2.6945 5.30848C1.20699 5.30848 0 4.1 0 2.64167C0 1.18333 1.20619 0 2.6945 0C4.18281 0 5.389 1.18254 5.389 2.64167C5.389 4.1 4.182 5.30848 2.6945 5.30848ZM22.436 22.0008H17.794V14.8505C17.794 13.1463 17.7587 10.9611 15.3752 10.9611C12.9564 10.9611 12.5853 12.8123 12.5853 14.728V22.0008H7.93763V7.31212H12.3993V9.31576H12.4643C13.0854 8.1615 14.6026 6.9436 16.8659 6.9436C21.5744 6.9436 22.44 9.98364 22.44 13.932V22.0008H22.436Z" fill="#3A0CA3"/>
</svg>
