<svg width="23" height="22" viewBox="0 0 23 22" fill="none" xmlns="http://www.w3.org/2000/svg">
<path d="M11.678 0.000366211C8.6279 0.000366211 8.24778 0.0148055 7.0541 0.0643117C5.85552 0.122069 5.04477 0.304279 4.32941 0.576563C3.5916 0.859849 2.9632 1.23596 2.34252 1.84791C1.71763 2.45642 1.33049 3.0725 1.04574 3.79584C0.768014 4.49718 0.58216 5.29203 0.523247 6.46711C0.469244 7.63807 0.458023 8.01005 0.458023 11.0004C0.458023 13.9907 0.472751 14.3633 0.523247 15.5336C0.58216 16.7053 0.768014 17.5036 1.04574 18.2049C1.3347 18.9282 1.71833 19.5443 2.34252 20.1528C2.9632 20.7655 3.5916 21.145 4.32941 21.4242C5.04477 21.693 5.85902 21.8787 7.0541 21.9364C8.24848 21.9894 8.6279 22.0004 11.678 22.0004C14.7281 22.0004 15.1083 21.9859 16.3019 21.9364C17.497 21.8787 18.3113 21.6923 19.0266 21.4242C19.7644 21.1409 20.3928 20.7648 21.0135 20.1528C21.6384 19.5443 22.0256 18.9317 22.3103 18.2049C22.5845 17.5036 22.7739 16.7053 22.8328 15.5336C22.8868 14.3627 22.898 13.9907 22.898 11.0004C22.898 8.01005 22.8833 7.63738 22.8328 6.46711C22.7739 5.29547 22.5838 4.49305 22.3103 3.79584C22.0213 3.0725 21.6377 2.45642 21.0135 1.84791C20.3928 1.23527 19.768 0.855723 19.0266 0.576563C18.3113 0.304279 17.497 0.122069 16.3019 0.0643117C15.1076 0.0113676 14.7281 0.000366211 11.678 0.000366211ZM11.678 1.98061C14.6734 1.98061 15.0311 1.99505 16.215 2.04456C17.307 2.09475 17.9017 2.27353 18.2965 2.42479C18.8232 2.62488 19.1915 2.86141 19.5898 3.24783C19.9805 3.63082 20.2217 3.99593 20.4258 4.51231C20.5801 4.89942 20.7624 5.48249 20.8136 6.55306C20.8641 7.71371 20.8789 8.06506 20.8789 11.0011C20.8789 13.937 20.8641 14.2884 20.8094 15.449C20.7505 16.5196 20.5682 17.1027 20.4146 17.4898C20.2021 18.0062 19.965 18.3672 19.5737 18.7577C19.1788 19.1407 18.8029 19.3772 18.2804 19.5773C17.8905 19.7286 17.2873 19.9074 16.1911 19.9575C15.001 20.0071 14.6503 20.0215 11.6472 20.0215C8.64404 20.0215 8.29407 20.0071 7.1025 19.9534C6.01051 19.8957 5.40806 19.7169 5.01321 19.5663C4.48019 19.358 4.1148 19.1256 3.72345 18.7419C3.3286 18.3548 3.07752 17.9862 2.88395 17.474C2.72685 17.0917 2.54731 16.5004 2.4891 15.4257C2.44912 14.2726 2.43018 13.915 2.43018 10.9846C2.43018 8.05544 2.44912 7.6972 2.4891 6.52968C2.54731 5.45499 2.72685 4.86504 2.88395 4.48136C3.07752 3.95811 3.3293 3.60057 3.72345 3.21346C4.1141 2.83047 4.48019 2.58294 5.01321 2.38904C5.40806 2.23846 5.99579 2.05969 7.09198 2.00605C8.28215 1.96411 8.63281 1.94898 11.6317 1.94898L11.678 1.98061ZM11.678 5.3546C8.49325 5.3546 5.91794 7.88285 5.91794 11.0017C5.91794 14.1241 8.49676 16.6489 11.678 16.6489C14.8628 16.6489 17.4381 14.1206 17.4381 11.0017C17.4381 7.87941 14.8593 5.3546 11.678 5.3546ZM11.678 14.6686C9.61048 14.6686 7.93779 13.0287 7.93779 11.0017C7.93779 8.97474 9.61048 7.33485 11.678 7.33485C13.7456 7.33485 15.4183 8.97474 15.4183 11.0017C15.4183 13.0287 13.7456 14.6686 11.678 14.6686ZM19.0168 5.12907C19.0168 5.85997 18.4102 6.44992 17.6681 6.44992C16.9226 6.44992 16.3209 5.85929 16.3209 5.12907C16.3209 4.40229 16.9268 3.81097 17.6681 3.81097C18.4095 3.81097 19.0168 4.40229 19.0168 5.12907Z" fill="#3A0CA3"/>
</svg>
